<svg width="196" height="214" viewBox="0 0 196 214" fill="none" xmlns="http://www.w3.org/2000/svg">
<path d="M106.088 119.504C105.907 119.098 105.72 118.691 105.539 118.29C105.643 118.51 105.748 118.724 105.847 118.944L106.088 119.504Z" fill="#AFCA44"/>
<path d="M108.105 145.067C108.001 145.308 107.902 145.539 107.792 145.764C107.781 145.789 107.768 145.813 107.753 145.836C107.852 145.616 107.99 145.347 108.105 145.067Z" fill="#AFCA44"/>
<path d="M109.594 132.428C109.594 132.285 109.594 132.143 109.55 131.994C109.55 132.077 109.55 132.153 109.55 132.23L109.594 132.428Z" fill="#AFCA44"/>
<path d="M142.531 0C142.531 0 142.394 4.39596 141.948 11.6823C141.707 15.6991 141.366 20.6006 140.904 26.1285C140.278 33.6126 139.432 42.2507 138.283 51.4052C138.283 51.6031 138.234 51.8009 138.206 51.9987C137.816 55.1473 137.382 58.3563 136.91 61.5984C136.816 62.2578 136.723 62.9226 136.624 63.5875C135.838 68.8297 134.975 74.1543 133.964 79.4569C132.667 86.419 131.178 93.3372 129.469 99.9806C129.283 100.717 129.09 101.448 128.892 102.179C127.337 108.009 125.755 113.168 124.172 117.735C122.49 122.695 120.504 127.547 118.227 132.263C113.682 141.544 109.336 146.49 105.693 148.886C105.814 148.754 105.935 148.622 106.05 148.484C106.165 148.347 106.286 148.199 106.396 148.056C106.506 147.913 106.616 147.759 106.72 147.605C106.825 147.451 106.935 147.298 107.034 147.133C107.132 146.968 107.264 146.754 107.374 146.556C107.484 146.358 107.632 146.078 107.753 145.83C107.768 145.808 107.781 145.784 107.792 145.759C107.902 145.534 108.001 145.303 108.105 145.061C108.103 145.045 108.103 145.028 108.105 145.012C108.204 144.77 108.303 144.512 108.396 144.253L108.545 143.836C108.545 143.764 108.594 143.693 108.616 143.621L108.682 143.413C108.726 143.275 108.77 143.138 108.808 142.995C108.968 142.446 109.1 141.896 109.215 141.347C109.253 141.16 109.292 140.967 109.325 140.797C109.358 140.627 109.391 140.407 109.424 140.209C109.479 139.874 109.523 139.528 109.561 139.182C109.594 138.918 109.622 138.632 109.644 138.385C109.666 138.137 109.677 137.967 109.688 137.758C109.726 137.121 109.748 136.467 109.748 135.797C109.748 135.522 109.748 135.247 109.748 134.972C109.745 134.939 109.745 134.906 109.748 134.873C109.748 134.599 109.748 134.324 109.71 134.044C109.671 133.764 109.682 133.527 109.66 133.263C109.638 133 109.616 132.714 109.583 132.417V132.219C109.583 132.142 109.583 132.066 109.583 131.983C109.583 131.901 109.55 131.697 109.534 131.555C109.49 131.208 109.44 130.857 109.385 130.505C109.33 130.153 109.275 129.802 109.21 129.45C109.166 129.203 109.116 128.955 109.067 128.708C109.039 128.571 109.012 128.433 108.979 128.291C108.946 128.148 108.924 128.032 108.896 127.9C108.894 127.878 108.894 127.856 108.896 127.834C108.847 127.631 108.803 127.422 108.748 127.214C108.633 126.708 108.501 126.202 108.358 125.697C108.303 125.494 108.242 125.29 108.182 125.081C108.072 124.713 107.962 124.345 107.841 123.982C107.764 123.757 107.693 123.532 107.616 123.307C107.539 123.081 107.462 122.862 107.38 122.636C107.244 122.27 107.101 121.891 106.951 121.499C106.797 121.103 106.638 120.708 106.468 120.312C106.363 120.054 106.248 119.795 106.132 119.537L105.88 118.988C105.781 118.768 105.676 118.553 105.572 118.334C105.363 117.9 105.143 117.465 104.918 117.031C104.693 116.597 104.445 116.13 104.187 115.68C104.044 115.421 103.901 115.169 103.748 114.91C103.451 114.399 103.132 113.888 102.808 113.377C102.672 113.157 102.529 112.938 102.379 112.718C102.341 112.652 102.297 112.586 102.253 112.52L101.797 111.855C101.714 111.729 101.626 111.608 101.539 111.481L101.253 111.086C100.511 110.058 99.7252 109.069 98.879 108.108L98.5163 107.695C100.031 104.276 101.791 100.971 103.781 97.8046L104.149 97.2166C105.467 95.0736 106.781 92.8206 108.078 90.4139C108.297 90.0127 108.512 89.6116 108.726 89.2105C108.94 88.8093 109.16 88.4027 109.374 87.9906C109.924 86.9191 110.506 85.8311 111.061 84.7211L111.704 83.4243C111.924 82.9847 112.144 82.5396 112.364 82.089C112.397 82.0176 112.435 81.9516 112.463 81.8747C112.545 81.7044 112.633 81.5285 112.715 81.3252C112.93 80.8856 113.144 80.435 113.358 79.99C113.573 79.5449 113.787 79.0888 113.996 78.6382C114.287 78.0338 114.545 77.4238 114.853 76.8029C115.199 76.0501 115.545 75.2863 115.891 74.5225L116.99 72.1267L117.221 71.5772C119.677 65.9998 122.029 60.2466 124.244 54.5429C124.793 53.0812 125.37 51.625 125.892 50.1469C127.216 46.6576 128.48 43.2178 129.678 39.8603C130.191 38.4243 130.691 37.0085 131.178 35.6128C131.783 33.8837 132.369 32.1876 132.937 30.5244C134.81 25.0295 136.459 19.9467 137.844 15.5837C140.822 6.11588 142.531 0 142.531 0Z" fill="#AFCA44"/>
<path d="M106.088 119.504C105.907 119.098 105.72 118.691 105.539 118.29C105.643 118.51 105.748 118.724 105.847 118.944L106.088 119.504Z" fill="#AFCA44"/>
<path d="M108.105 145.067C108.001 145.308 107.902 145.539 107.792 145.764C107.781 145.789 107.768 145.813 107.753 145.836C107.852 145.616 107.99 145.347 108.105 145.067Z" fill="#AFCA44"/>
<path d="M109.594 132.428C109.594 132.285 109.594 132.143 109.55 131.994C109.55 132.077 109.55 132.153 109.55 132.23L109.594 132.428Z" fill="#AFCA44"/>
<path d="M109.759 134.967C109.756 134.934 109.756 134.901 109.759 134.868C109.759 134.593 109.759 134.318 109.721 134.038C109.682 133.758 109.693 133.522 109.671 133.258C109.649 132.994 109.627 132.708 109.594 132.412C109.594 132.269 109.594 132.126 109.55 131.978C109.506 131.829 109.517 131.692 109.501 131.549C109.457 131.203 109.407 130.851 109.352 130.5C109.297 130.148 109.243 129.796 109.177 129.444C109.133 129.197 109.083 128.95 109.034 128.703C109.006 128.565 108.979 128.428 108.946 128.285C108.913 128.142 108.891 128.027 108.863 127.895C108.861 127.873 108.861 127.851 108.863 127.829C108.814 127.626 108.77 127.417 108.715 127.208C108.6 126.702 108.468 126.197 108.325 125.691C108.27 125.488 108.209 125.285 108.149 125.076C108.039 124.708 107.929 124.34 107.808 123.977C107.731 123.752 107.66 123.526 107.583 123.301C107.506 123.076 107.429 122.856 107.347 122.631C107.211 122.264 107.068 121.885 106.918 121.493C106.764 121.098 106.605 120.702 106.435 120.306C106.325 120.048 106.215 119.79 106.099 119.532C105.918 119.125 105.731 118.718 105.55 118.317C105.369 117.916 105.121 117.449 104.896 117.015C104.671 116.581 104.423 116.114 104.165 115.663C104.022 115.405 103.874 115.152 103.726 114.894C103.429 114.383 103.11 113.872 102.786 113.361C102.65 113.141 102.508 112.921 102.357 112.701C102.319 112.635 102.275 112.569 102.231 112.504L101.775 111.839C101.692 111.712 101.605 111.591 101.517 111.465L101.231 111.069C100.489 110.042 99.7033 109.053 98.8571 108.091L98.4944 107.679C96.1154 105.086 93.5238 102.697 90.7465 100.536L90.263 100.151C86.966 97.5298 83.0041 94.7164 78.2235 91.359C74.4265 88.6994 69.8602 85.5124 66.25 81.8527C64.9571 80.5611 63.7871 79.152 62.7552 77.6436C61.894 76.3569 61.1052 75.0232 60.3924 73.6488C58.9788 70.9184 57.7809 68.0817 56.8097 65.1646C56.5515 64.3898 56.3097 63.6205 56.0844 62.8677C55.8591 62.1149 55.6448 61.3731 55.4525 60.6697C54.7821 58.164 54.2985 55.8671 53.9523 53.9824C53.4028 50.8942 53.2105 48.9105 53.2105 48.9105C53.2105 48.9105 52.7874 51.9382 52.6061 57.0211C52.6061 57.5706 52.5731 58.1201 52.5621 58.7355C52.2937 71.0467 53.7568 83.3345 56.9086 95.2384C57.4581 97.2606 58.0736 99.3102 58.7604 101.365C58.8099 101.525 58.8648 101.684 58.9198 101.843C58.915 101.859 58.915 101.877 58.9198 101.893C59.4949 103.607 60.1287 105.325 60.821 107.047C66.9589 122.383 76.9212 134.813 85.9274 142.446C90.2685 146.133 94.3842 148.699 97.7416 149.946C98.8369 150.375 99.9844 150.656 101.154 150.781C101.54 150.814 101.928 150.814 102.313 150.781C103.065 150.745 103.793 150.5 104.412 150.072C104.683 149.877 104.942 149.666 105.187 149.441C105.358 149.287 105.522 149.122 105.687 148.952C105.808 148.82 105.929 148.688 106.044 148.55C106.16 148.413 106.281 148.265 106.391 148.122C106.501 147.979 106.61 147.825 106.715 147.671C106.819 147.517 106.929 147.363 107.028 147.199C107.127 147.034 107.259 146.819 107.369 146.622C107.479 146.424 107.627 146.144 107.748 145.896C107.869 145.649 107.984 145.391 108.1 145.127C108.097 145.111 108.097 145.094 108.1 145.078C108.198 144.836 108.297 144.578 108.391 144.319L108.539 143.902C108.539 143.83 108.589 143.759 108.611 143.687L108.677 143.479C108.72 143.341 108.764 143.204 108.803 143.061C108.962 142.511 109.094 141.962 109.21 141.412C109.248 141.226 109.286 141.033 109.319 140.863C109.352 140.693 109.385 140.473 109.418 140.275C109.473 139.94 109.517 139.594 109.556 139.247C109.589 138.984 109.616 138.698 109.638 138.451C109.66 138.203 109.671 138.033 109.682 137.824C109.721 137.187 109.743 136.533 109.743 135.863C109.77 135.516 109.765 135.247 109.759 134.967Z" fill="#D2EB6F"/>
<path d="M10.642 206L0.102 182.2H2.822L12.682 204.606H11.186L21.114 182.2H23.664L13.124 206H10.642ZM26.5086 206V188.15H28.9226V206H26.5086ZM27.7326 184.206C27.2339 184.206 26.8146 184.036 26.4746 183.696C26.1346 183.356 25.9646 182.948 25.9646 182.472C25.9646 181.996 26.1346 181.599 26.4746 181.282C26.8146 180.942 27.2339 180.772 27.7326 180.772C28.2312 180.772 28.6506 180.931 28.9906 181.248C29.3306 181.565 29.5006 181.962 29.5006 182.438C29.5006 182.937 29.3306 183.356 28.9906 183.696C28.6732 184.036 28.2539 184.206 27.7326 184.206ZM42.7454 206.17C41.0454 206.17 39.5154 205.785 38.1554 205.014C36.8181 204.243 35.7641 203.178 34.9934 201.818C34.2228 200.435 33.8374 198.849 33.8374 197.058C33.8374 195.245 34.2228 193.658 34.9934 192.298C35.7641 190.938 36.8181 189.884 38.1554 189.136C39.5154 188.365 41.0454 187.98 42.7454 187.98C44.3094 187.98 45.7034 188.331 46.9274 189.034C48.1741 189.737 49.1601 190.768 49.8854 192.128C50.6334 193.465 51.0074 195.109 51.0074 197.058C51.0074 198.985 50.6448 200.628 49.9194 201.988C49.1941 203.348 48.2081 204.391 46.9614 205.116C45.7374 205.819 44.3321 206.17 42.7454 206.17ZM42.9154 204.028C44.1848 204.028 45.3181 203.745 46.3154 203.178C47.3354 202.589 48.1288 201.773 48.6954 200.73C49.2848 199.665 49.5794 198.441 49.5794 197.058C49.5794 195.653 49.2848 194.429 48.6954 193.386C48.1288 192.343 47.3354 191.539 46.3154 190.972C45.3181 190.383 44.1848 190.088 42.9154 190.088C41.6688 190.088 40.5468 190.383 39.5494 190.972C38.5521 191.539 37.7588 192.343 37.1694 193.386C36.5801 194.429 36.2854 195.653 36.2854 197.058C36.2854 198.441 36.5801 199.665 37.1694 200.73C37.7588 201.773 38.5521 202.589 39.5494 203.178C40.5468 203.745 41.6688 204.028 42.9154 204.028ZM49.6474 206V200.628L49.8854 197.024L49.5454 193.42V180.772H51.9594V206H49.6474ZM66.2644 206.17C64.4057 206.17 62.7737 205.785 61.3684 205.014C59.9631 204.221 58.8637 203.144 58.0704 201.784C57.2771 200.401 56.8804 198.826 56.8804 197.058C56.8804 195.29 57.2544 193.726 58.0024 192.366C58.7731 191.006 59.8157 189.941 61.1304 189.17C62.4677 188.377 63.9637 187.98 65.6184 187.98C67.2957 187.98 68.7804 188.365 70.0724 189.136C71.3871 189.884 72.4184 190.949 73.1664 192.332C73.9144 193.692 74.2884 195.267 74.2884 197.058C74.2884 197.171 74.2771 197.296 74.2544 197.432C74.2544 197.545 74.2544 197.67 74.2544 197.806H58.7164V196.004H72.9624L72.0104 196.718C72.0104 195.426 71.7271 194.281 71.1604 193.284C70.6164 192.264 69.8684 191.471 68.9164 190.904C67.9644 190.337 66.8651 190.054 65.6184 190.054C64.3944 190.054 63.2951 190.337 62.3204 190.904C61.3457 191.471 60.5864 192.264 60.0424 193.284C59.4984 194.304 59.2264 195.471 59.2264 196.786V197.16C59.2264 198.52 59.5211 199.721 60.1104 200.764C60.7224 201.784 61.5611 202.589 62.6264 203.178C63.7144 203.745 64.9497 204.028 66.3324 204.028C67.4204 204.028 68.4291 203.835 69.3584 203.45C70.3104 203.065 71.1264 202.475 71.8064 201.682L73.1664 203.246C72.3731 204.198 71.3757 204.923 70.1744 205.422C68.9957 205.921 67.6924 206.17 66.2644 206.17ZM88.6104 206V182.2H97.5184C99.5357 182.2 101.27 182.529 102.72 183.186C104.171 183.821 105.282 184.75 106.052 185.974C106.846 187.175 107.242 188.637 107.242 190.36C107.242 192.037 106.846 193.488 106.052 194.712C105.282 195.913 104.171 196.843 102.72 197.5C101.27 198.157 99.5357 198.486 97.5184 198.486H90.0044L91.1264 197.296V206H88.6104ZM91.1264 197.5L90.0044 196.276H97.4504C99.8304 196.276 101.632 195.766 102.856 194.746C104.103 193.703 104.726 192.241 104.726 190.36C104.726 188.456 104.103 186.983 102.856 185.94C101.632 184.897 99.8304 184.376 97.4504 184.376H90.0044L91.1264 183.186V197.5ZM112.505 206V180.772H114.919V206H112.505ZM132.822 206V202.056L132.72 201.41V194.814C132.72 193.295 132.289 192.128 131.428 191.312C130.589 190.496 129.331 190.088 127.654 190.088C126.498 190.088 125.398 190.281 124.356 190.666C123.313 191.051 122.429 191.561 121.704 192.196L120.616 190.394C121.522 189.623 122.61 189.034 123.88 188.626C125.149 188.195 126.486 187.98 127.892 187.98C130.204 187.98 131.983 188.558 133.23 189.714C134.499 190.847 135.134 192.581 135.134 194.916V206H132.822ZM126.668 206.17C125.33 206.17 124.163 205.955 123.166 205.524C122.191 205.071 121.443 204.459 120.922 203.688C120.4 202.895 120.14 201.988 120.14 200.968C120.14 200.039 120.355 199.2 120.786 198.452C121.239 197.681 121.964 197.069 122.962 196.616C123.982 196.14 125.342 195.902 127.042 195.902H133.196V197.704H127.11C125.387 197.704 124.186 198.01 123.506 198.622C122.848 199.234 122.52 199.993 122.52 200.9C122.52 201.92 122.916 202.736 123.71 203.348C124.503 203.96 125.614 204.266 127.042 204.266C128.402 204.266 129.569 203.96 130.544 203.348C131.541 202.713 132.266 201.807 132.72 200.628L133.264 202.294C132.81 203.473 132.017 204.413 130.884 205.116C129.773 205.819 128.368 206.17 126.668 206.17ZM150.802 187.98C152.253 187.98 153.522 188.263 154.61 188.83C155.721 189.374 156.582 190.213 157.194 191.346C157.829 192.479 158.146 193.907 158.146 195.63V206H155.732V195.868C155.732 193.987 155.256 192.57 154.304 191.618C153.375 190.643 152.06 190.156 150.36 190.156C149.091 190.156 147.98 190.417 147.028 190.938C146.099 191.437 145.374 192.173 144.852 193.148C144.354 194.1 144.104 195.256 144.104 196.616V206H141.69V188.15H144.002V193.046L143.628 192.128C144.195 190.836 145.102 189.827 146.348 189.102C147.595 188.354 149.08 187.98 150.802 187.98ZM170.311 206.17C168.633 206.17 167.341 205.717 166.435 204.81C165.528 203.903 165.075 202.623 165.075 200.968V184.206H167.489V200.832C167.489 201.875 167.749 202.679 168.271 203.246C168.815 203.813 169.585 204.096 170.583 204.096C171.648 204.096 172.532 203.79 173.235 203.178L174.085 204.912C173.609 205.343 173.031 205.66 172.351 205.864C171.693 206.068 171.013 206.17 170.311 206.17ZM161.879 190.156V188.15H172.929V190.156H161.879ZM189.665 206V202.056L189.563 201.41V194.814C189.563 193.295 189.133 192.128 188.271 191.312C187.433 190.496 186.175 190.088 184.497 190.088C183.341 190.088 182.242 190.281 181.199 190.666C180.157 191.051 179.273 191.561 178.547 192.196L177.459 190.394C178.366 189.623 179.454 189.034 180.723 188.626C181.993 188.195 183.33 187.98 184.735 187.98C187.047 187.98 188.827 188.558 190.073 189.714C191.343 190.847 191.977 192.581 191.977 194.916V206H189.665ZM183.511 206.17C182.174 206.17 181.007 205.955 180.009 205.524C179.035 205.071 178.287 204.459 177.765 203.688C177.244 202.895 176.983 201.988 176.983 200.968C176.983 200.039 177.199 199.2 177.629 198.452C178.083 197.681 178.808 197.069 179.805 196.616C180.825 196.14 182.185 195.902 183.885 195.902H190.039V197.704H183.953C182.231 197.704 181.029 198.01 180.349 198.622C179.692 199.234 179.363 199.993 179.363 200.9C179.363 201.92 179.76 202.736 180.553 203.348C181.347 203.96 182.457 204.266 183.885 204.266C185.245 204.266 186.413 203.96 187.387 203.348C188.385 202.713 189.11 201.807 189.563 200.628L190.107 202.294C189.654 203.473 188.861 204.413 187.727 205.116C186.617 205.819 185.211 206.17 183.511 206.17Z" fill="#D2EB6F"/>
</svg>
